<svg xmlns="http://www.w3.org/2000/svg" viewBox="0 0 1200 630" fill="none" stroke-width="1.6" role="img" aria-label="Jours pleins, pause, reprise">
  <rect x="0" y="0" width="1200" height="630" fill="#0b0b0b"/>
  <rect x="24" y="24" width="1152" height="582" fill="none" stroke="#D5B654" opacity=".28"/>
  <path d="M24 64V24H64M1136 24H1176V64M1176 566V606H1136M64 606H24V566" stroke="#D5B654" opacity=".55"/>
  <g fill="#D5B654" opacity=".26">
    <rect x="300" y="200" width="26" height="26"/><rect x="344" y="200" width="26" height="26"/><rect x="388" y="200" width="26" height="26"/><rect x="432" y="200" width="26" height="26"/><rect x="476" y="200" width="26" height="26"/>
    <rect x="300" y="244" width="26" height="26"/><rect x="344" y="244" width="26" height="26"/><rect x="388" y="244" width="26" height="26"/>
    <rect x="608" y="244" width="26" height="26"/><rect x="652" y="244" width="26" height="26"/>
    <rect x="784" y="288" width="26" height="26"/><rect x="828" y="288" width="26" height="26"/><rect x="872" y="288" width="26" height="26"/>
    <rect x="872" y="200" width="26" height="26"/><rect x="916" y="200" width="26" height="26"/>
  </g>
  <g fill="#D5B654">
    <rect x="520" y="244" width="26" height="26"/><rect x="564" y="244" width="26" height="26"/><rect x="696" y="244" width="26" height="26"/>
    <rect x="608" y="288" width="26" height="26"/><rect x="652" y="288" width="26" height="26"/><rect x="696" y="288" width="26" height="26"/><rect x="740" y="288" width="26" height="26"/>
  </g>
  <g fill="#c0553f" opacity=".55"><rect x="916" y="288" width="26" height="26"/><rect x="960" y="288" width="26" height="26"/><rect x="916" y="332" width="26" height="26"/></g>
  <rect x="1004" y="200" width="26" height="26" stroke="#D5B654" stroke-dasharray="4 4"/>
  <path d="M120 315H260M1080 315H1160" stroke="#D5B654" opacity=".32"/>
</svg>
